<?xml version="1.0" encoding="utf-8"?>
<!-- Generator: Adobe Illustrator 24.3.0, SVG Export Plug-In . SVG Version: 6.00 Build 0)  -->
<svg version="1.1" id="Layer_1" xmlns="http://www.w3.org/2000/svg" xmlns:xlink="http://www.w3.org/1999/xlink" x="0px" y="0px"
	 viewBox="0 0 40.5 40.5" style="enable-background:new 0 0 40.5 40.5;" xml:space="preserve">
<style type="text/css">
	.st0{fill:#FFFFFF;stroke:#FFFFFF;stroke-miterlimit:10;}
	.st1{fill:#ee9f1f;}
	.st2{fill:#770053;}
</style>
<g>
	<path class="st0" d="M38,19.9c0-4.6-1.3-9-3.6-12.2c-2.4-3.4-5.6-5.2-9.1-5.2c-1.6,0-3.2,0.4-4.7,1.2c-1.5-0.8-3-1.2-4.7-1.2
		C8.9,2.5,3.4,10.2,3.4,20c0,0.1-0.4,8.5,5,14.1c3.1,3.2,7.2,4.9,12.3,4.9c5.1,0,9.3-1.6,12.3-4.9C38.2,28.7,38.1,20.9,38,19.9z"/>
	<g>
		<g>
			<g>
				<path class="st1" d="M20.7,36.5c-4.4,0-7.9-1.4-10.5-4.1C5.5,27.5,5.9,20.3,5.9,20c0-8.4,4.5-15,10.1-15c1.7,0,3.3,0.6,4.7,1.7
					c1.4-1.1,3-1.7,4.7-1.7c5.7,0,10.1,6.6,10.1,15.1c0,0.7,0.2,7.6-4.3,12.3C28.6,35.1,25.1,36.5,20.7,36.5z M15.8,28.9
					c1.1,0.6,3.1,1.4,4.9,1.4c1.6,0,3.3-0.7,4.5-1.4c-2-1-3.5-2.4-4.5-3.6C19.6,26.3,18.1,27.6,15.8,28.9z M16.3,11.2
					c-0.9,0-3.4,2.4-3.8,5.6c-0.6,4.3,0.2,5.1,0.2,5.1c0,0,0.1,0,0.1,0c0.5,0,1.1-0.2,2.3-0.8c1.7-0.9,2.5-2.6,2.5-5
					C17.7,12.9,16.8,11.2,16.3,11.2z M25.2,11.2c-0.5,0-1.4,1.7-1.4,4.8c0,2.3,0.8,3.9,2.5,4.9c1.3,0.7,2,0.8,2.2,0.8
					c0.2,0,1-0.8,0.4-5C28.5,13.6,26.1,11.2,25.2,11.2z"/>
				<path class="st2" d="M25.4,6.5c4.8,0,8.6,6.1,8.6,13.6c0,0.4,0.2,7-3.9,11.3c-2.3,2.4-5.5,3.6-9.4,3.6c-4,0-7.1-1.2-9.4-3.6
					c-4.2-4.4-3.9-11-3.9-11.3c0-7.5,3.9-13.6,8.6-13.6c1.7,0,3.3,0.7,4.7,2.2C22.1,7.2,23.7,6.5,25.4,6.5 M28.5,23.2
					c0.4,0,0.7-0.1,1-0.3c0.7-0.5,1.5-2,0.8-6.5c-0.5-3.6-3.3-6.8-5.2-6.8c-2,0-2.9,3.2-2.9,6.3c0,2.9,1.1,5,3.2,6.2
					C26.8,22.9,27.8,23.2,28.5,23.2 M12.9,23.4c0.8,0,1.8-0.4,3-1c2.2-1.2,3.3-3.3,3.3-6.3c0-3.2-0.9-6.4-2.9-6.4
					c-1.9,0-4.8,3.2-5.3,6.9c-0.6,4.5,0.1,6.1,0.9,6.6C12.2,23.3,12.5,23.4,12.9,23.4 M20.7,31.8c3.3,0,7.2-2.7,7.4-3.4
					c0,0-0.1,0-0.2,0c-3.4-0.7-5.9-3.7-7.1-5.3c0-0.1-0.1-0.1-0.1-0.1c0,0-0.1,0-0.2,0.1c-0.8,1.1-2.8,3.3-7,5.3
					c-0.2,0.1-0.2,0.2-0.2,0.3C13.6,29.6,17.4,31.8,20.7,31.8 M25.4,3.5c-1.6,0-3.2,0.5-4.7,1.3c-1.5-0.9-3-1.3-4.7-1.3
					c-6.5,0-11.6,7.3-11.6,16.6c0,0.2-0.4,8,4.7,13.4c2.9,3,6.8,4.5,11.6,4.5c4.8,0,8.7-1.5,11.6-4.5c4.9-5.2,4.7-12.7,4.7-13.5
					C37,10.8,31.9,3.5,25.4,3.5L25.4,3.5z M27.6,19.9c-0.2-0.1-0.4-0.2-0.6-0.3c-0.8-0.4-1.7-1.2-1.7-3.5c0-1.3,0.2-2.2,0.3-2.8
					c0.6,0.7,1.5,2.1,1.7,3.7C27.6,18.3,27.6,19.2,27.6,19.9L27.6,19.9z M13.8,20.1c0-0.6,0-1.6,0.2-3.1c0.2-1.6,1.1-3,1.9-3.8
					c0.2,0.6,0.4,1.6,0.4,2.9c0,2.4-0.9,3.2-1.7,3.6C14.2,19.9,14,20,13.8,20.1L13.8,20.1z M19.1,28.6c0.6-0.4,1-0.8,1.5-1.2
					c0.4,0.4,0.9,0.8,1.4,1.2c-0.4,0.1-0.8,0.2-1.2,0.2C20.2,28.8,19.6,28.7,19.1,28.6L19.1,28.6z"/>
			</g>
		</g>
	</g>
</g>
</svg>
